<?xml version="1.0" standalone="no"?>
<!DOCTYPE svg PUBLIC "-//W3C//DTD SVG 20010904//EN"
 "http://www.w3.org/TR/2001/REC-SVG-20010904/DTD/svg10.dtd">
<svg version="1.0" xmlns="http://www.w3.org/2000/svg"
 width="369.000000pt" height="180.000000pt" viewBox="0 0 369.000000 180.000000"
 preserveAspectRatio="xMidYMid meet">
<metadata>
Created by potrace 1.15, written by Peter Selinger 2001-2017
</metadata>
<g transform="translate(0.000000,180.000000) scale(0.100000,-0.100000)"
fill="#000000" stroke="none">
<path d="M1142 1764 c-21 -14 -1052 -1552 -1052 -1568 0 -3 34 -6 75 -6 l74 0
472 710 c259 391 475 710 478 710 4 0 123 -160 265 -355 142 -195 269 -366
282 -380 12 -14 32 -25 44 -25 25 0 70 42 70 65 0 21 -596 842 -620 855 -27
15 -62 12 -88 -6z"/>
<path d="M979 1197 c-114 -172 -310 -468 -437 -660 l-231 -347 52 1 52 0 412
621 411 621 -25 39 c-14 21 -26 38 -27 38 0 -1 -94 -141 -207 -313z"/>
<path d="M876 795 c-218 -327 -396 -597 -396 -600 0 -3 15 -5 33 -4 31 0 41
14 415 575 l382 575 -18 24 -19 24 -397 -594z"/>
<path d="M1052 818 c-81 -119 -409 -605 -416 -616 -5 -9 10 -12 66 -12 l73 0
30 45 30 45 137 0 138 0 11 -45 11 -45 79 0 c58 0 77 3 74 13 -2 6 -47 156
-100 331 -52 176 -97 321 -99 323 -2 3 -17 -15 -34 -39z m6 -355 l20 -73 -85
0 -85 0 19 29 c112 172 96 167 131 44z"/>
<path d="M2084 851 c-89 -23 -179 -94 -222 -176 -70 -136 -50 -325 44 -420 85
-85 232 -109 344 -57 75 34 73 31 49 98 -28 75 -34 81 -57 61 -25 -23 -86 -47
-118 -47 -42 0 -100 39 -125 83 -41 74 -25 202 34 266 29 31 94 61 135 61 40
0 99 -24 129 -52 l23 -21 29 64 c34 74 33 77 -45 115 -59 29 -161 40 -220 25z"/>
<path d="M2562 525 l-222 -335 74 0 74 0 29 45 28 45 136 0 136 0 13 -45 13
-45 78 0 c58 0 77 3 74 13 -3 9 -161 538 -191 640 -3 9 -8 17 -12 17 -4 0
-107 -151 -230 -335z m218 -122 c0 -9 -23 -13 -80 -13 -44 0 -80 2 -80 5 0 3
26 44 57 91 l57 85 23 -78 c12 -43 23 -84 23 -90z"/>
<path d="M1460 828 c0 -7 -24 -154 -54 -325 l-53 -313 207 0 207 0 10 70 9 70
-123 0 c-111 0 -123 2 -123 18 0 9 18 118 40 242 22 124 40 231 40 238 0 8
-23 12 -80 12 -57 0 -80 -4 -80 -12z"/>
<path d="M3155 829 c-2 -8 -27 -149 -55 -314 -28 -165 -53 -306 -55 -313 -4
-10 13 -12 73 -10 l77 3 20 112 c11 61 23 114 26 118 6 5 189 -275 189 -289 0
-3 -760 -6 -1688 -6 l-1689 0 -21 -23 c-27 -29 -28 -61 -2 -87 20 -20 33 -20
1836 -20 1449 0 1814 3 1808 13 -4 6 -65 105 -137 219 -71 113 -129 210 -128
215 1 4 13 11 27 15 37 10 92 54 110 90 11 22 15 49 12 94 -3 52 -9 70 -34
101 -17 21 -51 49 -75 63 -38 21 -59 25 -166 28 -98 4 -124 2 -128 -9z m226
-132 c61 -41 47 -122 -26 -153 -40 -16 -95 -19 -95 -3 0 16 21 153 25 167 7
20 59 14 96 -11z"/>
</g>
</svg>
