<svg height="512pt" viewBox="0 0 512 512" width="512pt" xmlns="http://www.w3.org/2000/svg"><path d="m256 0c-141.28125 0-256 114.507812-256 256 0 141.277344 114.507812 256 256 256 141.28125 0 256-114.507812 256-256 0-141.277344-114.507812-256-256-256zm166.226562 393.941406-12.078124-12.078125c-7.808594-7.808593-20.472657-7.808593-28.285157 0-7.808593 7.8125-7.808593 20.476563 0 28.285157l12.078125 12.078124c-33.589844 27.976563-74.40625 44.882813-117.941406 48.851563v-17.078125c0-11.046875-8.953125-20-20-20s-20 8.953125-20 20v17.078125c-43.535156-3.96875-84.347656-20.875-117.941406-48.851563l12.078125-12.078124c7.808593-7.808594 7.808593-20.472657 0-28.285157-7.8125-7.808593-20.476563-7.808593-28.285157 0l-12.078124 12.078125c-27.976563-33.589844-44.882813-74.40625-48.851563-117.941406h17.078125c11.046875 0 20-8.953125 20-20s-8.953125-20-20-20h-17.078125c3.96875-43.535156 20.875-84.347656 48.851563-117.941406l12.078124 12.078125c7.808594 7.808593 20.472657 7.808593 28.285157 0 7.808593-7.8125 7.808593-20.476563 0-28.285157l-12.078125-12.078124c33.589844-27.976563 74.40625-44.882813 117.941406-48.851563v17.078125c0 11.046875 8.953125 20 20 20s20-8.953125 20-20v-17.078125c43.535156 3.96875 84.347656 20.875 117.941406 48.851563l-12.078125 12.078124c-7.808593 7.808594-7.808593 20.472657 0 28.285157 7.808594 7.808593 20.476563 7.808593 28.285157 0l12.078124-12.078125c27.976563 33.59375 44.878907 74.40625 48.851563 117.941406h-17.078125c-11.046875 0-20 8.953125-20 20s8.953125 20 20 20h17.078125c-3.96875 43.535156-20.875 84.351562-48.851563 117.941406zm-106.121093-198.046875c7.808593 7.8125 7.808593 20.476563 0 28.285157l-45.964844 45.964843c-12.664063 12.664063-34.152344 3.484375-34.140625-14.15625v-129.988281c0-11.046875 8.953125-20 20-20s20 8.953125 20 20v81.714844l11.820312-11.820313c7.808594-7.808593 20.472657-7.808593 28.285157 0zm0 0"/></svg>