<svg height="511pt" viewBox="0 -10 511.99991 511" width="511pt" xmlns="http://www.w3.org/2000/svg"><path d="m507.566406 228.605469-53.109375-63.910157 43.523438-60.898437c7.160156-10.015625 3.15625-24.109375-8.203125-28.867187l-174.230469-72.9375c-8.265625-3.460938-17.820313-.746094-23.03125 6.542968l-36.515625 51.089844-36.519531-51.089844c-5.207031-7.289062-14.761719-10.003906-23.027344-6.542968l-174.230469 72.9375c-11.359375 4.757812-15.367187 18.847656-8.203125 28.867187l43.523438 60.898437-53.109375 63.910157c-8.238282 9.910156-4.542969 24.992187 7.351562 29.972656l50.785156 21.261719v119.910156c0 7.738281 4.648438 14.71875 11.785157 17.707031l174.230469 72.941407c4.742187 1.984374 10.085937 1.984374 14.824218 0l174.234375-72.941407c7.136719-2.988281 11.78125-9.96875 11.78125-17.707031v-119.910156l50.789063-21.261719c11.890625-4.976563 15.59375-20.058594 7.351562-29.972656zm-192.71875-185.289063 137.910156 57.734375-29.234374 40.90625-137.917969-57.734375zm-58.847656 174.390625-124.527344-52.128906 124.527344-52.132813 124.527344 52.132813zm-58.84375-174.390625 29.234375 40.90625-137.910156 57.734375-29.238281-40.90625zm-109.703125 145.449219 137.203125 57.4375-36.914062 44.417969c-13.242188-5.542969-124.050782-51.929688-137.199219-57.4375zm323.585937 198.214844-155.039062 64.902343-155.039062-64.902343v-91.070313l85.054687 35.609375c7.785156 3.257813 16.785156 1.050781 22.175781-5.4375l47.808594-57.53125 47.808594 57.53125c5.402344 6.5 14.40625 8.6875 22.175781 5.4375l85.054687-35.609375zm-86.78125-96.359375-36.914062-44.417969 137.203125-57.4375 36.914063 44.417969c-13.160157 5.511718-123.941407 51.886718-137.203126 57.4375zm0 0"/></svg>