<svg height="512pt" viewBox="0 0 512 512" width="512pt" xmlns="http://www.w3.org/2000/svg"><path d="m373 199.878906c-33.085938 0-60-26.917968-60-60 0-33.085937 26.914062-60 60-60s60 26.914063 60 60c0 11.046875-8.953125 20-20 20s-20-8.953125-20-20c0-11.027344-8.972656-20-20-20s-20 8.972656-20 20 8.972656 20 20 20c11.046875 0 20 8.953125 20 20s-8.953125 20-20 20zm139 104.128906v147.464844c0 19.984375-9.875 38.675782-26.417969 49.996094-16.160156 11.058594-36.597656 13.542969-54.773437 6.679688l-75.371094-24.855469c-.25-.082031-.492188-.167969-.734375-.257813-13.597656-5.082031-28.214844-5.839844-42.265625-2.191406l-104.707031 27.171875c-10.226563 2.652344-20.761719 3.980469-31.296875 3.980469-10.097656 0-20.195313-1.21875-30.027344-3.664063l-85.691406-21.285156c-35.75-8.882813-60.714844-40.808594-60.714844-77.640625v-349.398438c0-19.882812 9.8125-38.429687 26.253906-49.613281 16.285156-11.078125 36.90625-13.453125 55.269532-6.394531l74.597656 25.207031c.253906.085938.503906.175781.753906.273438 11.453125 4.386719 23.914062 5.703125 36.03125 3.808593 10.917969-1.710937 21.144531 5.753907 22.851562 16.667969 1.710938 10.910157-5.753906 21.144531-16.664062 22.851563-18.875 2.957031-38.277344.9375-56.140625-5.828125l-74.664063-25.230469c-.316406-.109375-.632812-.222656-.941406-.347656-6.257812-2.46875-13.035156-1.714844-18.597656 2.066406s-8.75 9.808594-8.75 16.539062v344.214844l208.597656-208.597656c-7.765625-17.148438-12.578125-36.074219-12.597656-57.734375.089844-76.050781 61.992188-137.8828125 138-137.8828125s137.910156 61.8320315 138 137.8398435c-.058594 58.90625-35.417969 97.632813-69.617188 135.082032-16.71875 18.3125-34.011718 37.246093-47.648437 58.828124-3.667969 5.796876-10.046875 9.3125-16.90625 9.3125h-7.65625c-6.859375 0-13.238281-3.515624-16.90625-9.3125-13.640625-21.582031-30.929687-40.515624-47.648437-58.828124-12.351563-13.527344-24.847657-27.226563-35.785157-41.972657l-34.796875 34.800781 202.488282 202.484376 6.253906 2.066406c.328125.105468.65625.222656.980468.347656 6.085938 2.367188 12.734376 1.566406 18.234376-2.199219 5.722656-3.917969 9.007812-10.109375 9.007812-16.984375v-147.464844c0-11.046874 8.953125-20 20-20s20 8.953126 20 20zm-236-166.117187c.042969 43.332031 27.4375 73.332031 59.15625 108.066406 13.085938 14.335938 26.503906 29.027344 38.84375 45.5 12.339844-16.472656 25.757812-31.164062 38.84375-45.5 31.71875-34.734375 59.113281-64.734375 59.15625-108.105469-.0625-53.933593-44.023438-97.84375-98-97.84375s-97.9375 43.910157-98 97.882813zm77.902344 303.300781-147.152344-147.152344-148.769531 148.773438c3.707031 2.4375 7.871093 4.292969 12.375 5.410156l85.691406 21.289063c13.636719 3.386719 28.035156 3.3125 41.636719-.21875l104.707031-27.171875c17.023437-4.417969 34.574219-4.691406 51.511719-.929688zm0 0"/></svg>