<?xml version="1.0" encoding="iso-8859-1"?>
<!-- Generator: Adobe Illustrator 19.0.0, SVG Export Plug-In . SVG Version: 6.00 Build 0)  -->
<svg version="1.1" id="Capa_1" xmlns="http://www.w3.org/2000/svg" xmlns:xlink="http://www.w3.org/1999/xlink" x="0px" y="0px"
	 viewBox="0 0 512 512" style="enable-background:new 0 0 512 512;" xml:space="preserve">
<g>
	<g>
		<g>
			<circle cx="387.444" cy="286" r="25"/>
			<path d="M481.32,228.751c-10.27-17.79-20.887-28.626-27.72-34.443L419.474,64.9c-2.316-8.781-10.258-14.9-19.339-14.9H111.866
				c-9.082,0-17.023,6.119-19.339,14.9L58.399,194.307c-6.833,5.817-17.449,16.653-27.72,34.443C10.322,264.012,0,310.189,0,366
				c0,11.046,8.954,20,20,20h56.556v28c0,26.467,21.533,48,48,48c26.468,0,48-21.533,48-48v-28h166.887v28c0,26.467,21.532,48,48,48
				c26.468,0,48-21.533,48-48v-28H492c11.046,0,20-8.954,20-20C512,310.189,501.678,264.012,481.32,228.751z M127.275,90h257.451
				l25.316,96H101.958L127.275,90z M132.556,414c0,4.411-3.589,8-8,8s-8-3.589-8-8v-28h16V414z M395.443,414c0,4.411-3.589,8-8,8
				s-8-3.589-8-8v-28h16V414z M40.537,346c1.617-29.652,7.34-65.288,23.154-94.345c7.432-13.654,14.898-21.692,19.227-25.655
				h346.163c4.331,3.963,11.796,12.001,19.228,25.655c15.813,29.057,21.537,64.693,23.154,94.345C450.002,346,61.386,346,40.537,346
				z"/>
			<circle cx="124.556" cy="286" r="25"/>
		</g>
	</g>
</g>
<g>
</g>
<g>
</g>
<g>
</g>
<g>
</g>
<g>
</g>
<g>
</g>
<g>
</g>
<g>
</g>
<g>
</g>
<g>
</g>
<g>
</g>
<g>
</g>
<g>
</g>
<g>
</g>
<g>
</g>
</svg>
