<svg height="511pt" viewBox="0 0 511 511.99985" width="511pt" xmlns="http://www.w3.org/2000/svg"><path d="m463.394531 293.679688-133.125-98.324219c9.230469-52.015625-6.472656-107.066407-46.09375-146.6875-43.332031-43.332031-104.890625-57.882813-160.511719-43.03125-14.851562 3.964843-19.871093 22.578125-8.984374 33.464843l51.355468 51.355469v48.066407l-27.011718 27.011718h-48.066407l-51.355469-51.355468c-10.847656-10.851563-29.484374-5.925782-33.464843 8.980468-14.878907 55.71875-.222657 117.261719 43.03125 160.519532 39.488281 39.488281 94.484375 55.351562 146.6875 46.09375l98.324219 133.125c43.929687 59.484374 130.578124 65.984374 182.890624 13.675781 52.335938-52.339844 45.785157-138.980469-13.675781-182.894531zm-14.609375 154.605468c-35.03125 35.035156-93.03125 30.652344-122.429687-9.152344l-106.027344-143.558593c-4.875-6.597657-13.285156-9.550781-21.210937-7.449219-43.363282 11.488281-89.988282-1.054688-121.664063-32.734375-22.507813-22.507813-35.351563-52.53125-36.789063-83.578125l27.867188 27.867188c3.75 3.75 8.835938 5.855468 14.140625 5.855468h64.636719c5.304687 0 10.390625-2.105468 14.140625-5.855468l38.730469-38.730469c3.75-3.75 5.859374-8.835938 5.859374-14.140625v-64.636719c0-5.304687-2.109374-10.390625-5.859374-14.140625l-27.867188-27.867188c31.046875 1.4375 61.074219 14.28125 83.578125 36.789063h.003906c31.675781 31.675781 44.21875 78.296875 32.730469 121.664063-2.101562 7.929687.851562 16.339843 7.449219 21.210937l143.558593 106.027344c39.851563 29.4375 44.144532 87.445312 9.152344 122.429687zm-29.480468-64.835937c9.765624 9.765625 9.765624 25.59375 0 35.355469-9.761719 9.765624-25.589844 9.765624-35.355469 0-9.761719-9.761719-9.761719-25.589844 0-35.355469 9.761719-9.761719 25.59375-9.761719 35.355469 0zm0 0"/></svg>